<svg width="17" height="19" viewBox="0 0 17 19" fill="none" xmlns="http://www.w3.org/2000/svg">
<path d="M10.7783 9.025C10.7783 9.6045 10.3669 10.0795 9.84574 10.0795C9.33374 10.0795 8.91317 9.6045 8.91317 9.025C8.91317 8.4455 9.3246 7.9705 9.84574 7.9705C10.3669 7.9705 10.7783 8.4455 10.7783 9.025ZM6.5086 7.9705C5.98745 7.9705 5.57602 8.4455 5.57602 9.025C5.57602 9.6045 5.9966 10.0795 6.5086 10.0795C7.02974 10.0795 7.44117 9.6045 7.44117 9.025C7.45031 8.4455 7.02974 7.9705 6.5086 7.9705ZM16.1635 1.957V19C13.8601 16.885 14.5967 17.5851 11.9212 15.0005L12.4057 16.758H2.03774C1.0046 16.758 0.163452 15.884 0.163452 14.801V1.957C0.163452 0.874 1.0046 0 2.03774 0H14.2892C15.3223 0 16.1635 0.874 16.1635 1.957ZM13.5577 10.963C13.5577 7.904 12.2412 5.4245 12.2412 5.4245C10.9246 4.3985 9.67202 4.427 9.67202 4.427L9.54402 4.579C11.0983 5.073 11.8206 5.7855 11.8206 5.7855C9.64877 4.54868 7.0976 4.54846 4.99088 5.51C4.6526 5.6715 4.45145 5.7855 4.45145 5.7855C4.45145 5.7855 5.21031 5.035 6.85602 4.541L6.7646 4.427C6.7646 4.427 5.51202 4.3985 4.19545 5.4245C4.19545 5.4245 2.87888 7.904 2.87888 10.963C2.87888 10.963 3.64688 12.3405 5.66745 12.407C5.66745 12.407 6.00574 11.9795 6.28002 11.6185C5.11888 11.2575 4.68002 10.4975 4.68002 10.4975C4.81452 10.5953 5.03631 10.7221 5.05488 10.735C6.5981 11.633 8.79017 11.9272 10.76 11.0675C11.08 10.944 11.4366 10.7635 11.8115 10.507C11.8115 10.507 11.3543 11.286 10.1566 11.6375C10.4309 11.9985 10.76 12.407 10.76 12.407C12.7806 12.3405 13.5577 10.963 13.5577 10.963V10.963Z" fill="white"/>
</svg>
